<svg xmlns="http://www.w3.org/2000/svg" viewBox="0 0 600 380" width="100%" height="100%">
  <defs>
    <linearGradient id="bgGrad4" x1="0%" y1="0%" x2="100%" y2="100%">
      <stop offset="0%" stop-color="#0f1b1c"/>
      <stop offset="50%" stop-color="#081314"/>
      <stop offset="100%" stop-color="#142629"/>
    </linearGradient>
    <linearGradient id="greenGlow" x1="0%" y1="0%" x2="100%" y2="0%">
      <stop offset="0%" stop-color="#00f5a0"/>
      <stop offset="100%" stop-color="#00d9f5"/>
    </linearGradient>
    <radialGradient id="cardGlow4" cx="50%" cy="50%" r="50%">
      <stop offset="0%" stop-color="#00f5a0" stop-opacity="0.25"/>
      <stop offset="100%" stop-color="#081314" stop-opacity="0"/>
    </radialGradient>
  </defs>
  <rect width="600" height="380" rx="16" fill="url(#bgGrad4)" stroke="#1d4d46" stroke-width="2"/>
  <circle cx="300" cy="190" r="160" fill="url(#cardGlow4)"/>
  <path d="M 50 60 L 550 60 M 50 320 L 550 320" stroke="#ffffff15" stroke-width="1" stroke-dasharray="6,6"/>
  <path d="M 80 40 L 80 340 M 520 40 L 520 340" stroke="#ffffff15" stroke-width="1" stroke-dasharray="6,6"/>
  <g transform="translate(300, 130)">
    <circle cx="0" cy="0" r="50" fill="#0d2926" stroke="#00f5a0" stroke-width="2.5"/>
    <!-- Node Network / Graph -->
    <circle cx="-16" cy="-12" r="6" fill="url(#greenGlow)"/>
    <circle cx="16" cy="-12" r="6" fill="url(#greenGlow)"/>
    <circle cx="0" cy="16" r="7" fill="#ffffff"/>
    <line x1="-16" y1="-12" x2="0" y2="16" stroke="#00f5a0" stroke-width="2"/>
    <line x1="16" y1="-12" x2="0" y2="16" stroke="#00f5a0" stroke-width="2"/>
    <line x1="-16" y1="-12" x2="16" y2="-12" stroke="#00f5a0" stroke-width="1.5" stroke-dasharray="3,3"/>
  </g>
  <text x="300" y="225" text-anchor="middle" fill="#ffffff" font-family="'Segoe UI', sans-serif" font-size="22" font-weight="700" letter-spacing="1.5">DATA STRUCTURES &amp; AI</text>
  <text x="300" y="255" text-anchor="middle" fill="#69f0ae" font-family="'Segoe UI', sans-serif" font-size="14" font-weight="500" letter-spacing="2">C++ &bull; PROBLEM SOLVING &bull; ALGORITHMS</text>
  <g transform="translate(130, 280)">
    <rect x="0" y="0" width="85" height="24" rx="12" fill="#0c302b" stroke="#00f5a050" stroke-width="1"/>
    <text x="42" y="16" text-anchor="middle" fill="#b9f6ca" font-family="'Segoe UI', sans-serif" font-size="11">Data Structures</text>
    <rect x="95" y="0" width="75" height="24" rx="12" fill="#0c302b" stroke="#00f5a050" stroke-width="1"/>
    <text x="132" y="16" text-anchor="middle" fill="#b9f6ca" font-family="'Segoe UI', sans-serif" font-size="11">Algorithms</text>
    <rect x="180" y="0" width="75" height="24" rx="12" fill="#0c302b" stroke="#00f5a050" stroke-width="1"/>
    <text x="217" y="16" text-anchor="middle" fill="#b9f6ca" font-family="'Segoe UI', sans-serif" font-size="11">OOP Logic</text>
    <rect x="265" y="0" width="85" height="24" rx="12" fill="#0c302b" stroke="#00f5a050" stroke-width="1"/>
    <text x="307" y="16" text-anchor="middle" fill="#b9f6ca" font-family="'Segoe UI', sans-serif" font-size="11">AI Foundations</text>
  </g>
</svg>
